<svg width="57" height="57" viewBox="0 0 57 57" fill="none" xmlns="http://www.w3.org/2000/svg">
<path d="M8.97656 29.8234L29.6375 47.7555C29.7961 47.8922 29.9984 47.9688 30.2117 47.9688H35.0516C35.4562 47.9688 35.6422 47.4656 35.3359 47.2031L16.1844 30.5781L48.1875 30.5781C48.4281 30.5781 48.625 30.3813 48.625 30.1406V26.8594C48.625 26.6187 48.4281 26.4219 48.1875 26.4219L16.1898 26.4219L35.3414 9.79688C35.6477 9.52891 35.4617 9.03125 35.057 9.03125H30.0531C29.9492 9.03125 29.8453 9.06953 29.7687 9.14062L8.97656 27.1766C8.78724 27.3412 8.63544 27.5445 8.53142 27.7728C8.42739 28.0011 8.37357 28.2491 8.37357 28.5C8.37357 28.7509 8.42739 28.9989 8.53142 29.2272C8.63544 29.4555 8.78724 29.6588 8.97656 29.8234Z" fill="white"/>
</svg>
