<svg width="57" height="57" viewBox="0 0 57 57" fill="none" xmlns="http://www.w3.org/2000/svg">
<path d="M48.0234 27.1766L27.3625 9.24453C27.2039 9.10781 27.0016 9.03125 26.7883 9.03125H21.9484C21.5438 9.03125 21.3578 9.53438 21.6641 9.79688L40.8156 26.4219H8.8125C8.57188 26.4219 8.375 26.6187 8.375 26.8594V30.1406C8.375 30.3813 8.57188 30.5781 8.8125 30.5781H40.8102L21.6586 47.2031C21.3523 47.4711 21.5383 47.9688 21.943 47.9688H26.9469C27.0508 47.9688 27.1547 47.9305 27.2313 47.8594L48.0234 29.8234C48.2128 29.6588 48.3646 29.4555 48.4686 29.2272C48.5726 28.9989 48.6264 28.7509 48.6264 28.5C48.6264 28.2491 48.5726 28.0011 48.4686 27.7728C48.3646 27.5445 48.2128 27.3412 48.0234 27.1766Z" fill="white"/>
</svg>
